<?xml version="1.0" encoding="utf-8"?>
<!-- Generator: Adobe Illustrator 27.5.0, SVG Export Plug-In . SVG Version: 6.00 Build 0)  -->
<svg version="1.1" xmlns="http://www.w3.org/2000/svg" xmlns:xlink="http://www.w3.org/1999/xlink" x="0px" y="0px"
	 viewBox="0 0 2000 2000" style="enable-background:new 0 0 2000 2000;" xml:space="preserve">
<g id="Layer_1">
	<rect style="fill:#FFFDF7;" width="2000" height="2000"/>
	<g>
		<path style="fill-rule:evenodd;clip-rule:evenodd;" d="M489.406,1855.516c-0.054-3.313,1.194-6.273,1.837-9.48
			c0.821-4.059-4.553-5.367-6.062-1.672c-1.522,3.717-1.177,7.945-0.102,11.738C485.753,1858.477,489.447,1858.031,489.406,1855.516
			z"/>
		<path style="fill-rule:evenodd;clip-rule:evenodd;" d="M883.688,1423.84c-0.612,0.311-1.134,0.666-1.577,1.199
			c-0.394,0.475-0.844,0.895-1.313,1.289c-1.595,1.336-1.374,4.016,0,5.389c1.338,1.342,4.095,1.629,5.388,0
			c1.195-1.514,2.438-3.09,2.289-5.131C888.298,1424.119,885.933,1422.703,883.688,1423.84z"/>
		<path style="fill-rule:evenodd;clip-rule:evenodd;" d="M1121.867,918.408c-0.691,0.239-1.285,0.559-1.866,0.98
			c-0.704,0.506-1.238,1.057-1.483,1.922c-0.303,1.107,0.022,2.315,0.834,3.128c0.593,0.599,1.421,0.941,2.273,0.941
			c1.162,0,2.008-0.595,2.677-1.472c0.096-0.111,0.196-0.222,0.306-0.326c0.202-0.136,0.405-0.279,0.581-0.455
			c0.338-0.336,0.421-0.588,0.644-0.931c0.58-0.88,0.391-2.252-0.38-2.958C1124.436,918.311,1123.205,917.945,1121.867,918.408z"/>
		<path style="fill-rule:evenodd;clip-rule:evenodd;" d="M1760.265,785.83c0.769,0.556,1.582,0.915,2.616,0.904
			c0.717-0.004,1.455-0.389,1.799-1.032c0.527-0.97,0.607-1.893,0.467-2.901c0.102-1.316-0.074-2.725-0.353-3.979
			c-0.376-1.674-1.183-3.454-1.677-4.714c-1.041-2.687-3.51-4.525-6.514-3.7c-3.593,0.987-4.511,4.702-3.164,7.785
			C1754.776,781.269,1757.044,784.492,1760.265,785.83z"/>
		<path style="fill-rule:evenodd;clip-rule:evenodd;" d="M1568.851,1947.107c-0.689-0.596-1.866-0.037-1.595,0.928
			c0.414,1.441,0.743,3.168,0.838,4.658c0.094,1.586-0.987,2.619-2.314,3.246c-1.231,0.582-0.311,2.287,0.875,2.068
			c2.326-0.436,4.079-1.791,4.719-4.111C1572.138,1951.113,1570.9,1948.885,1568.851,1947.107z"/>
		<path style="fill-rule:evenodd;clip-rule:evenodd;" d="M1532.757,1192.484c-1.016,4.412,5.81,6.283,6.78,1.865
			c1.465-6.752-0.209-13.229-1.966-19.748c-0.831-3.074-1.81-6.162-2.33-9.307c-0.53-3.18-0.354-6.447-0.028-9.629
			c0.074-0.771-1.035-1.186-1.53-0.631c-4.512,5.076-4.776,12.576-3.307,18.91
			C1531.782,1179.994,1534.197,1186.213,1532.757,1192.484z"/>
		<path style="fill-rule:evenodd;clip-rule:evenodd;" d="M1949.741,1519.375c-0.463-0.535-1.476-0.533-1.935,0
			c-0.697,0.814-0.913,1.428-1.064,2.482c-0.147,1.074-0.513,1.951-1.143,2.824c-1.683,2.355,2.504,4.879,3.912,2.283
			c0.674-1.25,1.013-2.477,1.19-3.881C1950.878,1521.641,1950.694,1520.492,1949.741,1519.375z"/>
		<path style="fill-rule:evenodd;clip-rule:evenodd;" d="M917.126,1078.396c1.976-1.16,2.919-4.031,1.581-6.027
			c-1.605-2.396-2.409-5.744-5.359-6.805c-0.906-0.33-2.171,0.029-2.811,0.744c-2.481,2.762-1.14,7.658,0.561,10.506
			C912.326,1078.873,915.039,1079.619,917.126,1078.396z"/>
		<path style="fill-rule:evenodd;clip-rule:evenodd;" d="M170.143,205.431c2.66-0.733,3.345-3.487,2.347-5.773
			c-1.228-2.807-2.594-6.751-5.415-8.29c-1.052-0.571-2.097-0.179-2.77,0.728c-2.249,3.024-0.141,7.521,1.005,10.59
			C166.057,204.692,167.938,206.037,170.143,205.431z"/>
		<path style="fill-rule:evenodd;clip-rule:evenodd;" d="M397.144,1174.418c-0.645,0-1.27,0.256-1.727,0.711
			c-0.656,0.658-0.787,1.494-0.628,2.375c0.083,0.457,0.166,0.908,0.249,1.367c0.064,0.365,0.106,0.684,0.305,1.02
			c0.232,0.396,0.566,0.631,0.93,0.893c0.453,0.328,1.289,0.328,1.741,0c0.207-0.15,0.417-0.297,0.603-0.473
			c0.426-0.391,0.536-0.908,0.633-1.439c0.081-0.459,0.165-0.91,0.245-1.367c0.123-0.668,0.11-1.273-0.244-1.881
			C398.816,1174.885,398.004,1174.418,397.144,1174.418z"/>
		<path style="fill-rule:evenodd;clip-rule:evenodd;" d="M140.745,1726.842c-0.336-0.52-0.788-0.916-1.099-1.457
			c-0.993-1.73,0.067-4.127,0.679-5.83c0.551-1.543-2.112-2.133-2.341-0.318c-0.213,1.711,0.085,3.953-0.538,5.557
			c-0.532,1.367-1.318,2.723-1.247,4.225c0.142,2.949,1.173,7.695,4.022,9.213c0.753,0.402,1.67,0.189,2.119-0.557
			c1.496-2.479,0.201-6.396-0.755-8.896C141.328,1728.109,141.137,1727.449,140.745,1726.842z"/>
		<path style="fill-rule:evenodd;clip-rule:evenodd;" d="M498.718,1394.361c0,2.453,3.808,2.453,3.808,0
			C502.525,1391.9,498.718,1391.9,498.718,1394.361z"/>
		<path style="fill-rule:evenodd;clip-rule:evenodd;" d="M468.993,988.641c-3.785-1.043-5.868,3.164-6.414,6.177
			c-0.506,2.792-1.081,5.562-1.88,8.28c-0.784,2.678,0.92,5.566,3.575,6.298c2.67,0.736,5.586-0.88,6.297-3.573
			c0.672-2.537,1.165-5.107,1.566-7.705C472.64,994.898,473.118,989.773,468.993,988.641z"/>
		<path style="fill-rule:evenodd;clip-rule:evenodd;" d="M735.847,611.965c-0.876,0.697-1.262,1.906-1.891,2.813
			c-0.331,0.474-1.083,1.327-1.91,2.04c-1.43,1.229-1.256,3.629,0,4.884c1.221,1.223,3.703,1.472,4.88,0
			c1.062-1.322,1.981-2.624,2.42-4.288c0.342-1.313,0.774-3.169,0.251-4.458C738.935,611.298,737.243,610.845,735.847,611.965z"/>
		<path style="fill-rule:evenodd;clip-rule:evenodd;" d="M364.882,469.092c-0.03,0.203-0.072,0.402-0.118,0.599
			c-0.181,0.14-0.389,0.305-0.396,0.308c-1.137,0.746-2.218,1.683-2.612,2.964c-0.011,0.014-0.02,0.034-0.032,0.046
			c-0.56,0.8-0.335,2.078,0.351,2.72c0.059,0.054,0.119,0.109,0.175,0.163c-0.375-0.541-0.277-0.434,0.287,0.332
			c0.559,0.453,1.001,0.838,1.717,1.035c1.175,0.325,2.399,0.182,3.535-0.204c0.592-0.199,1.161-0.473,1.735-0.72
			c0.192-0.084,1.285-0.368,0.438-0.176c0.941-0.213,1.852-0.641,2.702-1.082c3.056-1.587,3.397-5.997,1.073-8.32
			C371.165,464.182,365.515,465.02,364.882,469.092z"/>
		<path style="fill-rule:evenodd;clip-rule:evenodd;" d="M83.546,551.244c-0.126,0.2-0.257,0.393-0.39,0.585
			c-0.047,0.061-0.098,0.126-0.134,0.165c-0.174,0.197-0.362,0.379-0.553,0.556c-1.895,1.761,0.057,5.195,2.548,4.378
			c1.013-0.333,1.951-0.794,2.845-1.369c1.703-1.089,2.122-3.471,0.638-4.955C87.016,549.123,84.637,549.542,83.546,551.244z"/>
		<path style="fill-rule:evenodd;clip-rule:evenodd;" d="M80.486,798.433c-2.911,0-5.422,2.984-4.476,5.879
			c0.291,0.893,0.637,1.664,1.23,2.344c0.164,0.246,0.349,0.473,0.556,0.675c0.016,0.032,0.031,0.064,0.048,0.099
			c1.051,1.996,4.237,1.996,5.287,0c0.016-0.035,0.032-0.067,0.049-0.099c0.206-0.202,0.392-0.429,0.555-0.675
			c0.594-0.68,0.938-1.452,1.231-2.344C85.909,801.417,83.399,798.433,80.486,798.433z"/>
		<path style="fill-rule:evenodd;clip-rule:evenodd;" d="M68.358,1204.715c-0.771,0-1.519,0.309-2.063,0.852
			c-0.798,0.799-0.918,1.777-0.75,2.84c0.126,0.787,0.282,1.445,0.685,2.152c0.173,0.309,0.327,0.613,0.581,0.867
			c0.276,0.277,0.525,0.354,0.788,0.615c0.413,0.412,1.104,0.412,1.516,0c0.118-0.119,0.213-0.217,0.347-0.271
			c0.499-0.215,0.773-0.764,1.023-1.211c0.402-0.707,0.56-1.365,0.686-2.152c0.128-0.811,0.135-1.512-0.295-2.248
			C70.357,1205.273,69.386,1204.715,68.358,1204.715z"/>
		<path style="fill-rule:evenodd;clip-rule:evenodd;" d="M74.397,1333.121c-1.324,0-2.052,1.207-1.836,2.412
			c0.294,1.641,0.602,3.143,1.939,4.262c0.466,0.389,1.208,0.154,1.222-0.508c0.011-0.676,0.232-1.318,0.27-1.994
			c0.031-0.594,0.139-1.18,0.243-1.76C76.448,1334.328,75.722,1333.121,74.397,1333.121z"/>
		<path style="fill-rule:evenodd;clip-rule:evenodd;" d="M40.993,1620.67c0.315-1.334,0.419-2.697,0.562-4.064
			c0.21-2.002-1.836-3.691-3.69-3.691c-1.854,0-3.899,1.689-3.69,3.691c0.131,1.26,0.205,2.543,0.494,3.773
			c0.197,0.834,0.372,1.625,1.007,2.256c0.529,0.531,1.431,1.047,2.189,1.047C39.519,1623.682,40.654,1622.107,40.993,1620.67z"/>
		<path style="fill-rule:evenodd;clip-rule:evenodd;" d="M1540.13,1622.852c-1.386,0.277-2.388,0.922-3.491,1.779
			c-1.332,1.035-2.355,2.236-3.333,3.609c-1.705,2.377-0.428,5.955,1.919,7.33c2.639,1.545,5.702,0.498,7.326-1.92
			c0.028-0.033,0.042-0.057,0.056-0.082c0.108-0.119,0.223-0.236,0.331-0.354c0.445-0.471,0.953-0.883,1.454-1.285
			c0.911-0.727,1.479-2.234,1.901-3.25c0.669-1.631-0.198-3.404-1.224-4.623C1543.872,1622.631,1541.808,1622.508,1540.13,1622.852z
			"/>
		<path style="fill-rule:evenodd;clip-rule:evenodd;" d="M1719.685,163.607c-2.653,2.503-3.397,5.882-4.723,9.143
			c-1.38,3.372-2.504,6.788-3.565,10.269c-0.899,2.948,1.043,6.155,3.952,6.957c3.719,1.024,6.919-1.823,7.155-5.452
			c0.218-3.355,0.427-6.697,0.561-10.053c0.138-3.394,0.982-6.624,0-9.97C1722.626,163.011,1720.795,162.555,1719.685,163.607z"/>
		<path style="fill-rule:evenodd;clip-rule:evenodd;" d="M382.793,151.126c0.018-0.047,0.035-0.095,0.052-0.135
			c0.042-0.077,0.103-0.196,0.191-0.375c0.826-1.655,1.346-3.217,0.702-5.061c-0.781-2.239-2.561-3.748-4.993-3.802
			c-3.461-0.08-6.645,3.488-7.477,6.738c-0.717,2.8-0.968,5.953,0.896,8.303c0.563,1.001,1.353,1.79,2.592,2.128
			c1.622,0.446,3.081-0.274,4.11-1.431c1.44-1.177,2.176-2.872,3.125-4.481C382.267,152.388,382.534,151.759,382.793,151.126z"/>
		<path style="fill-rule:evenodd;clip-rule:evenodd;" d="M567.835,1525.838c-0.696-0.414-1.677-0.283-2.25,0.287
			c-0.233,0.236-0.375,0.506-0.456,0.787c-0.243,0.289-0.452,0.607-0.666,0.943c-1.43,2.275,0.437,5.281,3.027,5.281
			c1.238,0,2.405-0.676,3.031-1.74c0.581-0.998,0.716-2.557,0-3.541C569.79,1526.859,569.027,1525.998,567.835,1525.838z"/>
		<path style="fill-rule:evenodd;clip-rule:evenodd;" d="M846.09,1658.869c-1.056-3.064-4.045-5.059-7.322-4.156
			c-3.561,0.98-5.697,5.504-3.561,8.746c2.441,3.697,4.719,9.279,9.394,10.559c1.616,0.443,3.688-0.527,4.024-2.283
			c0.434-2.248-0.215-4.393-0.575-6.613C847.713,1663.055,846.773,1660.85,846.09,1658.869z"/>
		<path style="fill-rule:evenodd;clip-rule:evenodd;" d="M221.985,618.31c0.227,0.409,0.439,0.818,0.649,1.234
			c0.094,0.19,0.183,0.379,0.273,0.571c0.096,0.23,0.222,0.528,0.378,0.893c0.541,0.778,1.07,1.357,1.71,1.901
			c1.467,2.571,4.724,2.557,6.795,0.833c4.451-3.713,2.737-9.396,1.204-14.097c-0.301-0.922-0.571-1.85-0.798-2.793
			c2.755-1.651,4.761-4.917,3.527-8.209c-0.336-0.887-0.634-1.778-0.883-2.692c-0.085-0.304-0.214-1.161-0.285-1.587
			c-0.011-0.392-0.01-0.785,0.004-1.176c0.009-0.251,0.028-0.497,0.047-0.743c0.004-0.045,0.007-0.086,0.01-0.119
			c0.432-3.146,0.757-7.969-1.048-10.729c-0.526-1.244-1.235-2.201-2.33-2.942c-0.207-0.207-0.409-0.41-0.619-0.612
			c-1.681-1.595-4.015-1.143-5.332,0.589c-1.154,0.753-1.748,1.857-2.246,3.085c-0.759,1.225-1.162,2.648-1.694,4.129
			c-0.695,1.927-1.081,3.405-1.35,5.506c-0.279,2.181-0.127,4.406,0.32,6.572c-0.823,1.014-1.496,2.195-1.989,3.571
			c-1.029,2.862-0.551,6.209,0.351,9.038C219.522,613.155,220.647,615.892,221.985,618.31z"/>
		<path style="fill-rule:evenodd;clip-rule:evenodd;" d="M455.246,822.98c1.778,0.751-0.446-0.218-1.002-0.392
			c-0.447-0.137-0.893-0.284-1.339-0.426c-2.063-0.664-4.079-1.172-6.228-1.457c-2.191-0.286-4.398,0.067-6.346,1.129
			c-0.005,0.003-0.008,0.006-0.014,0.01c1.467,4.501,3.04,8.972,4.747,13.408c0.977-1.152,1.314-2.866,0.514-4.423
			c-0.052-0.108-0.108-0.209-0.162-0.314c0.017-0.047,0.037-0.096,0.053-0.143c0.13,0.006,0.261,0.01,0.392,0.019
			c0.848,0.149,1.682,0.382,2.507,0.621c1.961,0.573,3.779,1.321,5.842,1.476c2.018,0.153,3.797-0.573,4.94-2.273
			c0.857-1.275,0.786-3.095,0-4.403C458.239,824.294,456.794,823.633,455.246,822.98z"/>
		<path style="fill-rule:evenodd;clip-rule:evenodd;" d="M1283.219,1498.201c-0.191,0.418-0.366,0.836-0.536,1.26
			c0.462-1.104-0.885,2.061-0.566,1.125c-0.087,0.248-0.186,0.49-0.278,0.74c0.055-0.15,0.034-0.111-0.021,0
			c-0.06,0.01-0.128,0.018-0.195,0.021c-0.16-0.033-0.797-0.105-0.893-0.131c-3.497-0.895-6.771,2.295-5.822,5.824
			c0.427,1.602,0.642,3.148,1.068,4.666c0.127,0.887,0.5,1.727,0.987,2.5c0.026,0.049,0.053,0.1,0.081,0.152
			c0.008-0.002,0.008-0.004,0.012-0.01c0.23,0.352,0.487,0.688,0.759,1.006c3.553,4.193,10.376-1.027,7.936-5.621
			c0.825-0.381,1.616-0.879,2.344-1.531c2.856-2.531,3.77-6.859,1.396-10.002
			C1288.048,1496.301,1284.457,1495.424,1283.219,1498.201z"/>
		<path style="fill-rule:evenodd;clip-rule:evenodd;" d="M1418.646,950.778c-0.271-0.428-0.536-0.863-0.785-1.308
			c-0.264-0.469-0.5-0.954-0.772-1.42c-0.135-0.232-0.264-0.47-0.386-0.709c1.326-0.045,2.51-0.714,2.91-2.155
			c0.399-1.463-0.485-3.452-2.109-3.724c-1.002-0.163-1.978-0.292-2.984-0.168c0.17-0.019-2.022,0.22-1.055,0.191
			c-0.5,0.015-1.016,0.103-1.497,0.249c-1.912,0.588-3.366,1.962-4.335,3.682c-1.287,2.288-1.04,5.461-0.669,7.946
			c0.127,0.867,0.323,1.725,0.542,2.572c0.052,0.201,0.087,0.425,0.106,0.604c0,0.037,0,0.071,0,0.107
			c0.054,5.347,5.987,8.853,10.66,6.116C1422.819,960.097,1422.771,953.691,1418.646,950.778z"/>
		<path style="fill-rule:evenodd;clip-rule:evenodd;" d="M1344.031,575.86c3.488,1.048,7.25-1.087,8.07-4.648
			c0.756-3.285-1.408-6.392-4.744-6.692c-0.255-0.052-0.534-0.095-0.893-0.104c-1.639-1.021-3.803-1.081-5.492-0.091
			c-1.184,0.692-2.068,1.844-2.434,3.166c-0.408,1.469-0.098,2.753,0.532,4.083C1340.053,573.644,1341.837,575.204,1344.031,575.86z
			"/>
		<path style="fill-rule:evenodd;clip-rule:evenodd;" d="M1938.64,524.491c-0.5-2.99-0.784-6.115-3.14-8.331
			c-2.287-2.151-5.68-2.151-7.969,0c-2.211,2.08-2.569,4.92-3.042,7.739c-0.5,2.972-0.906,5.926-1.131,8.935
			c-0.325,4.442,3.957,8.158,8.159,8.158c4.194,0,8.481-3.716,8.15-8.158C1939.465,530.027,1939.106,527.268,1938.64,524.491z"/>
		<path style="fill-rule:evenodd;clip-rule:evenodd;" d="M1950.451,238.913c2.963-0.815,4.193-4.198,2.774-6.822
			c-0.122-0.221-0.225-0.439-0.339-0.663c-0.171-0.39-0.536-1.208-0.514-1.195c-0.591-1.068-1.495-1.829-2.646-2.188
			c-0.845-0.419-1.793-0.369-2.598,0.198c-2.361,1.158-2.868,3.637-2.557,6.191c0.155,1.285,0.405,2.33,1.359,3.284
			C1947.103,238.889,1948.855,239.352,1950.451,238.913z"/>
		<path style="fill-rule:evenodd;clip-rule:evenodd;" d="M387.609,697.496c-0.169-0.39-0.535-1.209-0.514-1.195
			c-0.589-1.068-1.495-1.831-2.645-2.188c-0.846-0.42-1.793-0.369-2.599,0.198c-2.359,1.159-2.868,3.636-2.556,6.19
			c0.155,1.286,0.406,2.331,1.359,3.285c1.171,1.17,2.922,1.633,4.518,1.194c2.963-0.816,4.194-4.196,2.774-6.822
			C387.825,697.938,387.724,697.717,387.609,697.496z"/>
		<path style="fill-rule:evenodd;clip-rule:evenodd;" d="M1962.585,89.594c2.924,1.712,6.557,0.619,8.309-2.178
			c0.973-1.556,1.696-3.422,1.655-5.279c-0.062-2.689-1.446-4.574-3.565-5.713c-1.215-0.825-2.637-1.39-4.13-0.781
			c-1.058,0.43-1.143,0.443-2.017,1.187c-0.372,0.376-0.662,0.803-0.894,1.262c-0.188,0.233-0.365,0.476-0.52,0.741
			c-0.393,0.667-0.583,1.387-0.806,2.104c-0.066,0.115-0.135,0.233-0.211,0.352C1958.65,84.09,1959.8,87.961,1962.585,89.594z"/>
		<path style="fill-rule:evenodd;clip-rule:evenodd;" d="M1763.543,1601.492c-0.256-0.117-0.508-0.23-0.744-0.375
			c-0.147-0.113-0.298-0.225-0.439-0.34c-0.972-0.752-1.831-1.289-3.118-1.289c-1.161,0-2.292,0.465-3.11,1.289
			c-0.825,0.82-1.292,1.951-1.292,3.115c0,0.689,0.153,1.254,0.419,1.777c-0.23,1.27-0.203,2.418,0.468,3.568
			c0.411,0.695,0.966,1.252,1.662,1.664c0.723,0.422,1.51,0.633,2.348,0.633c1.13,0.146,2.179-0.395,3.152-0.891
			c1.022-0.527,1.926-1.402,2.407-2.455c0.57-1.242,0.875-2.402,0.494-3.77C1765.486,1603.297,1764.641,1601.99,1763.543,1601.492z"
			/>
		<path style="fill-rule:evenodd;clip-rule:evenodd;" d="M1963.121,1887.172c-0.124,0.031-0.23,0.094-0.35,0.135
			c-0.133-0.527-0.316-1.041-0.59-1.643c-0.366-0.807-0.936-1.494-1.502-2.168c-0.502-0.502-1.099-0.854-1.787-1.047
			c-0.656-0.178-1.238-0.16-1.813-0.031c-0.489,0.02-0.961,0.131-1.446,0.42c-0.651,0.379-1.145,0.963-1.423,1.637
			c-0.715,1.127-0.505,2.838,0.116,3.926c0.049,0.078,0.108,0.215,0.162,0.342c0,0.082,0,0.166,0,0.25
			c-0.135,2.332,2.05,4.285,4.283,4.285c0.207,0,0.418-0.031,0.629-0.07c0.024,0.135,0.028,0.271,0.065,0.404
			c0.028,0.111,0.109,0.561,0.161,0.809c-0.012,0.316-0.052,0.654-0.025,0.512c-0.155,0.963-0.305,1.908-0.275,2.898
			c0.06,2.711,1.805,5.131,4.455,5.855c3.331,0.92,6.419-1.104,7.475-4.236c1.138-3.4-0.241-7.057-2.217-9.871
			C1967.674,1887.633,1965.528,1886.504,1963.121,1887.172z"/>
		<path style="fill-rule:evenodd;clip-rule:evenodd;" d="M975.641,1909.424c-1.158-0.717-2.332-1.25-3.646-1.623
			c-0.684-0.229-1.383-0.35-2.102-0.369c-0.519,0.07-1.035,0.139-1.55,0.211c-0.541,0.141-0.534,0.131,0.014-0.035
			c-3.598-0.141-5.824,4.07-4.11,7.068c0.012,0.041,0.02,0.078,0.032,0.119c0.323,1.215,1.049,2.119,1.906,2.98
			c0.961,0.961,2.003,1.729,3.207,2.342c2.425,1.244,4.884,2.699,7.691,2.627c3.891-0.1,7.299-4.744,4.783-8.332
			C980.213,1912.063,978.016,1910.896,975.641,1909.424z"/>
		<path style="fill-rule:evenodd;clip-rule:evenodd;" d="M166.844,1892.178c-1.475,0.865-2.679,0.691-4.446,1.371
			c-2.799,1.072-5.599,1.898-7.075,4.785c-1.52,2.963-0.438,7.754,3.403,8.371c1.672,0.268,3.215,0.371,4.811-0.27
			c1.779-0.711,3.107-1.834,4.602-3.025c1.063-0.848,1.807-2.059,2.532-3.197c0.428-0.672,1.122-1.582,1.711-2.5
			C174.606,1894.238,170.26,1890.158,166.844,1892.178z"/>
		<path style="fill-rule:evenodd;clip-rule:evenodd;" d="M32.673,1991.58c-0.099,0.033-0.201,0.063-0.301,0.092
			c-0.083,0.025-0.163,0.049-0.247,0.078c-0.788,0.234-1.38,0.553-1.964,1.139c-0.778,0.775-1.222,1.846-1.222,2.945
			c0,1.102,0.444,2.17,1.222,2.945c0.778,0.777,1.845,1.221,2.946,1.221c1.1,0,2.168-0.443,2.945-1.221
			c0.581-0.578,0.898-1.16,1.135-1.943c0.024-0.078,0.049-0.156,0.073-0.238c0.034-0.111,0.068-0.221,0.102-0.332
			c0.391-1.291-0.039-2.762-0.981-3.705C35.439,1991.619,33.966,1991.189,32.673,1991.58z"/>
		<path style="fill-rule:evenodd;clip-rule:evenodd;" d="M193.946,1072.355c0.717-0.201,1.363-0.486,1.946-0.834
			c1.683,0.309,3.388,0.539,5.099,0.705c4.471,0.432,8.945-5.156,7.179-9.424c-0.056-0.131-0.105-0.262-0.156-0.395
			c1.69-2.258,1.875-4.676,0.738-7.285c-0.821-1.893-2.668-3.215-4.325-4.308c-3.112-2.063-7.13,0.031-8.205,3.279
			c-0.334,0.422-0.635,0.814-0.911,1.209c-0.112-0.033-0.139-0.033-0.015,0.02c-0.003,0.006-0.005,0.008-0.008,0.016
			c-1.222-0.471-2.427-0.775-3.631-0.799c-1.151-0.981-2.393-1.77-3.975-2.311c-1.476-0.502-3.299-0.164-4.615,0.607
			c-1.991,1.162-2.699,3-2.966,5.17c-0.306,2.502,0.781,4.951,2.115,6.982c1.186,1.811,2.512,3.893,4.088,5.346
			C188.389,1072.254,191.156,1073.119,193.946,1072.355z"/>
		<path style="fill-rule:evenodd;clip-rule:evenodd;" d="M239.684,1410.824c-1.725-1.496-3.341-2.49-5.475-3.283
			c-1.628-0.605-3.199-0.271-4.465,0.582c-1.725-0.965-3.528-1.791-5.466-2.482c-4.157-1.477-8.304,0.656-10.536,4.039
			c-1.124,0.453-2.183,1.137-3.121,2.076c-0.126,0.121-0.237,0.254-0.353,0.381c-2.983-0.641-6.148,0.152-8.416,2.422
			c-1.865,1.865-2.629,4.111-2.572,6.43c-0.277,0.035-0.553,0.088-0.828,0.152c-0.386-0.42-0.777-0.832-1.186-1.244
			c-1.992-2.25-5.69-2.52-8.189-1.051c-2.374,1.387-4.241,4.867-3.105,7.627c2.074,5.039,4.805,9.775,8.836,13.539
			c2.083,1.945,4.902,2.805,7.698,2.037c0.577-0.158,1.103-0.377,1.59-0.635c2.537,1.865,5.055,3.404,8.105,4.668
			c2.64,1.102,6.186-0.238,8.083-2.133c0.688-0.689,1.271-1.576,1.703-2.559c1.986,0.168,4.053-0.291,5.707-1.26
			c1.67-0.979,2.914-2.395,3.689-4.025c0.439-0.174,0.872-0.387,1.301-0.637c0.355-0.213,0.696-0.439,1.018-0.693
			c2.647,1.275,6.303,0.789,8.681-0.602c2.856-1.674,4.835-4.924,4.749-8.277c-0.104-4.008-1.676-7.559-3.843-10.869
			C242.255,1413.449,241.103,1412.057,239.684,1410.824z"/>
		<path style="fill-rule:evenodd;clip-rule:evenodd;" d="M682.181,1938.762c2.822,1.678,6.583,0.652,8.227-2.158
			c0.814-1.385,1.033-3.082,0.609-4.631c-0.379-1.373-1.416-2.982-2.768-3.592c-0.466-0.215-0.897-0.48-1.312-0.783
			c0.399,0.307,0.796,0.617,1.201,0.926c-0.863-0.672-1.748-1.311-2.623-1.965c0.054,0.043,0.112,0.09,0.171,0.131
			c-0.495-0.354-0.993-0.641-1.689-0.838c-0.927-0.264-1.809-0.309-2.723-0.131c-0.595,0.055-1.177,0.223-1.778,0.574
			c-0.913,0.535-1.806,1.51-2.108,2.566C675.7,1932.699,678.955,1936.846,682.181,1938.762z"/>
		<path style="fill-rule:evenodd;clip-rule:evenodd;" d="M1355.514,1780.424c-0.241-1.156-1.235-2.146-1.946-3.037
			c-1.109-1.404-3.49-0.84-4.295,0.559c-0.813,1.398-1.251,2.645-1.554,4.229c0.215-1.127-0.468,1.461-0.528,1.814
			c-0.076,0.461-0.19,0.91-0.307,1.354c-0.351,0.008-0.696-0.002-1.041-0.02c-0.94-0.045-1.881-0.162-2.82-0.264
			c-2.205-0.246-4.397-0.318-6.609-0.434c-2.103-0.109-4.464,1.607-4.87,3.711c-0.129,0.635-0.203,1.252-0.238,1.857
			c-0.127-0.039-0.249-0.082-0.369-0.113c-0.305-0.074-0.617-0.141-0.921-0.189c0.851,0.154-2.854-0.615-1.394-0.217
			c-2.942-0.799-6.711,1.541-6.4,4.873c0.061,0.643,0.15,1.252,0.253,1.844c-1.754-0.318-3.283,0.148-4.042,2.271
			c-0.815,2.289,0.759,4.039,1.942,5.82c1.123,1.686,2.327,3.332,3.525,4.967c3.003,4.094,7.217,7.365,11.979,9.104
			c5.013,1.822,9.084-3.592,8.098-8.096c-0.063-0.268-0.123-0.529-0.197-0.791c0.528-0.123,1.035-0.316,1.517-0.598
			c1.946-1.141,3.469-3.986,2.542-6.254c-1.104-2.699-2.517-5.117-4.039-7.6c-0.08-0.135-0.155-0.271-0.235-0.4
			c0.216,0.014,0.433,0.031,0.65,0.051c2.007,0.15,4.274,0.258,6.169-0.527c2.881-1.193,4.728-3.281,5.539-6.326
			c0.447-1.668,0.602-3.805,0.055-5.457C1355.753,1781.867,1355.666,1781.131,1355.514,1780.424z"/>
		<path style="fill-rule:evenodd;clip-rule:evenodd;" d="M463.352,1430.537c-0.246-0.176-0.479-0.355-0.77-0.457
			c-0.697-0.252-1.481,0.533-1.231,1.23c0.102,0.289,0.285,0.525,0.457,0.77c0.173,0.254,0.375,0.441,0.676,0.521
			c0.39,0.107,0.815-0.008,1.099-0.291c0.214-0.209,0.332-0.498,0.332-0.799C463.915,1431.094,463.692,1430.77,463.352,1430.537z"/>
		<path style="fill-rule:evenodd;clip-rule:evenodd;" d="M910.072,1199.576c-0.303,0.158-0.565,0.336-0.787,0.602
			c-0.196,0.238-0.422,0.449-0.658,0.646c-0.791,0.666-0.685,2.006,0,2.691c0.671,0.674,2.049,0.818,2.697,0
			c0.597-0.75,1.218-1.543,1.147-2.564C912.38,1199.719,911.196,1199.012,910.072,1199.576z"/>
		<path style="fill-rule:evenodd;clip-rule:evenodd;" d="M1233.293,536.468c-0.188-0.837-0.593-1.726-0.839-2.358
			c-0.521-1.343-1.755-2.262-3.256-1.85c-1.795,0.493-2.257,2.35-1.583,3.893c0.668,1.537,1.802,3.148,3.412,3.818
			c0.385,0.277,0.792,0.456,1.309,0.451c0.357-0.001,0.727-0.194,0.9-0.516c0.263-0.484,0.304-0.947,0.234-1.451
			C1233.52,537.8,1233.434,537.096,1233.293,536.468z"/>
		<path style="fill-rule:evenodd;clip-rule:evenodd;" d="M1097.654,1316.883c0.761,0.348,1.502,0.736,2.263,1.096
			c1.451,0.682,2.922,1.193,4.519,1.354c1.557,0.156,1.648-2.107,0.349-2.572c-1.382-0.492-2.848-0.705-4.303-0.875
			c-0.761-0.09-1.522-0.195-2.279-0.303c-0.765-0.115-1.519-0.375-2.294-0.385c-0.414-0.002-0.485,0.51-0.194,0.725
			C1096.286,1316.338,1097.01,1316.588,1097.654,1316.883z"/>
		<path style="fill-rule:evenodd;clip-rule:evenodd;" d="M1020.15,396.941c1.162-0.216,2.04-0.896,2.361-2.056
			c0.383-1.391-0.236-2.506-1.262-3.392c-0.345-0.301-0.932-0.02-0.798,0.463c0.206,0.72,0.372,1.583,0.419,2.328
			c0.047,0.794-0.493,1.309-1.156,1.622C1019.1,396.197,1019.559,397.05,1020.15,396.941z"/>
		<path style="fill-rule:evenodd;clip-rule:evenodd;" d="M1452.398,1180.631c-0.264-1.59-0.175-3.223-0.013-4.815
			c0.04-0.385-0.515-0.59-0.764-0.314c-2.254,2.537-2.388,6.283-1.652,9.453c0.704,3.025,1.907,6.137,1.192,9.271
			c-0.508,2.207,2.9,3.143,3.39,0.934c0.729-3.381-0.105-6.617-0.981-9.875C1453.15,1183.75,1452.66,1182.203,1452.398,1180.631z"/>
		<path style="fill-rule:evenodd;clip-rule:evenodd;" d="M1346.453,1492.482c-0.024-0.029-0.045-0.063-0.066-0.096
			c-0.385-0.656-1.446-0.896-1.996-0.285c-0.188-0.025-0.377-0.041-0.566-0.025c-0.765,0.064-1.428,0.469-1.645,1.248
			c-0.249,0.902,0.297,1.848,1.191,2.1c0.527,0.148,1.135,0.254,1.703,0.184c0.609-0.027,1.191-0.367,1.612-0.797
			c0.627-0.656,0.478-1.684-0.15-2.184c-0.033-0.064-0.074-0.127-0.115-0.186C1346.469,1492.5,1346.498,1492.543,1346.453,1492.482z
			"/>
		<path style="fill-rule:evenodd;clip-rule:evenodd;" d="M1211.701,871.801c-0.071-0.115-0.199-0.261-0.324-0.332
			c-0.352-0.209-0.591,0.02-0.931,0.065c-0.435,0.057-0.716,0.492-0.856,0.855c-0.448,1.177-0.664,2.476-0.749,3.727
			c-0.04,0.596-0.091,1.184-0.201,1.77c-0.112,0.604-0.112,1.214-0.354,1.789c-0.2,0.46-0.21,0.952,0.171,1.332
			c0.384,0.387,1.192,0.474,1.557,0c0.614-0.796,1.176-1.636,1.384-2.637c0.228-1.089,0.313-2.223,0.338-3.332
			c0.006-0.443,0.036-0.882,0.08-1.316c0.057-0.566,0.335-1.078,0.016-1.623C1211.329,871.241,1212.091,872.466,1211.701,871.801z"
			/>
		<path style="fill-rule:evenodd;clip-rule:evenodd;" d="M1458.717,1325.135c-0.345,0.406-0.452,0.715-0.527,1.242
			c-0.074,0.537-0.259,0.975-0.574,1.412c-0.839,1.178,1.25,2.439,1.954,1.141c0.339-0.627,0.507-1.236,0.595-1.941
			c0.089-0.719,0-1.295-0.479-1.854C1459.453,1324.869,1458.947,1324.869,1458.717,1325.135z"/>
		<path style="fill-rule:evenodd;clip-rule:evenodd;" d="M784.939,55.492c-0.555-0.354-1.164-0.369-1.793-0.258
			c-0.135,0.027-0.263,0.073-0.4,0.113c-0.046,0.016-0.094,0.023-0.138,0.035h-0.002c-1.04,0.037-1.908,0.838-1.908,1.906
			c0,1.009,0.868,1.939,1.908,1.904c0.583-0.02,1.359-0.124,1.874-0.449c0.249-0.164,0.473-0.342,0.676-0.563
			c0.385-0.425,0.474-0.828,0.539-1.373C785.751,56.277,785.357,55.757,784.939,55.492z"/>
		<path style="fill-rule:evenodd;clip-rule:evenodd;" d="M856.873,1813.664c-0.326,0-0.637,0.129-0.867,0.355
			c-0.324,0.328-0.391,0.746-0.313,1.189c0.043,0.229,0.082,0.453,0.122,0.682c0.034,0.182,0.055,0.34,0.155,0.512
			c0.117,0.197,0.285,0.311,0.468,0.445c0.222,0.16,0.643,0.16,0.866,0c0.108-0.074,0.209-0.148,0.304-0.238
			c0.211-0.197,0.271-0.451,0.319-0.719c0.04-0.229,0.08-0.453,0.12-0.682c0.062-0.34,0.056-0.637-0.12-0.943
			C857.711,1813.896,857.305,1813.664,856.873,1813.664z"/>
		<path style="fill-rule:evenodd;clip-rule:evenodd;" d="M805.557,1338.873c0.961-1.584,0.154-3.271-0.648-4.721
			c-0.684-1.24-1.225-2.303-1.6-3.617c-0.342-1.207-1.606-1.936-2.818-1.605c-1.279,0.352-1.833,1.596-1.604,2.824
			c0.291,1.541,0.875,2.967,1.483,4.402c0.629,1.477,1.328,3.178,3.071,3.586C804.272,1339.93,805.11,1339.619,805.557,1338.873z"/>
		<path style="fill-rule:evenodd;clip-rule:evenodd;" d="M1448.582,1269.949c-0.063,0.35-0.089,0.699,0.05,1.035
			c0.116,0.287,0.272,0.639,0.542,0.816c0.105,0.072,0.28,0.072,0.386,0c0.128-0.082,0.197-0.178,0.279-0.299
			c0.022-0.035,0.046-0.07,0.072-0.107c0.002-0.002,0.002-0.002,0.007-0.002c0.003-0.008,0.01-0.016,0.016-0.02
			c0.007-0.01,0.017-0.023,0.023-0.027c0.006,0,0.01-0.002,0.013-0.002c0.841-0.191,1.081-1.313,0.501-1.896
			C1449.913,1268.895,1448.733,1269.084,1448.582,1269.949z"/>
		<path style="fill-rule:evenodd;clip-rule:evenodd;" d="M1144.209,1494.563c-0.636-0.303-1.353-0.279-1.877,0.246
			c-0.523,0.52-0.543,1.238-0.24,1.873c0.438,0.914,0.807,2.104,1.941,2.344c0.724,0.156,1.455,0.012,1.992-0.523
			c0.538-0.541,0.685-1.268,0.528-1.996C1146.314,1495.371,1145.123,1495.004,1144.209,1494.563z"/>
		<path style="fill-rule:evenodd;clip-rule:evenodd;" d="M755.682,785.016c-1.893-0.521-2.933,1.582-3.205,3.088
			c-0.255,1.397-0.542,2.781-0.942,4.14c-0.391,1.341,0.462,2.784,1.788,3.149c1.339,0.367,2.794-0.44,3.152-1.786
			c0.334-1.268,0.582-2.554,0.782-3.853C757.507,788.145,757.746,785.583,755.682,785.016z"/>
		<path style="fill-rule:evenodd;clip-rule:evenodd;" d="M819.134,377.018c-0.44,0.347-0.632,0.954-0.949,1.405
			c-0.17,0.237-0.54,0.663-0.954,1.021c-0.715,0.614-0.629,1.815,0,2.442c0.611,0.61,1.851,0.735,2.441,0
			c0.529-0.661,0.99-1.313,1.205-2.144c0.177-0.656,0.386-1.585,0.131-2.23C820.675,376.683,819.828,376.457,819.134,377.018z"/>
		<path style="fill-rule:evenodd;clip-rule:evenodd;" d="M639.783,384.766c-0.743-0.742-1.931-0.532-2.476,0.319
			c-0.064,0.099-0.129,0.198-0.197,0.293c-0.024,0.03-0.047,0.063-0.067,0.082c-0.088,0.1-0.182,0.191-0.279,0.278
			c-0.945,0.882,0.032,2.598,1.276,2.19c0.507-0.167,0.978-0.397,1.424-0.685C640.317,386.698,640.525,385.508,639.783,384.766z"/>
		<path style="fill-rule:evenodd;clip-rule:evenodd;" d="M837.244,542.769c0.081,0.123,0.172,0.237,0.279,0.339
			c0.008,0.015,0.017,0.031,0.021,0.048c0.53,0.998,2.117,0.998,2.646,0c0.007-0.017,0.015-0.033,0.024-0.048
			c0.105-0.102,0.195-0.216,0.277-0.339c0.294-0.34,0.47-0.725,0.615-1.172c0.47-1.447-0.781-2.938-2.24-2.938
			c-1.457,0-2.709,1.491-2.238,2.938C836.774,542.044,836.951,542.429,837.244,542.769z"/>
		<path style="fill-rule:evenodd;clip-rule:evenodd;" d="M528.088,1844.217c-0.386,0-0.757,0.154-1.035,0.424
			c-0.399,0.398-0.457,0.895-0.372,1.422c0.06,0.395,0.143,0.725,0.345,1.074c0.083,0.156,0.163,0.309,0.288,0.436
			c0.139,0.141,0.262,0.174,0.396,0.311c0.203,0.201,0.549,0.201,0.759,0c0.06-0.063,0.107-0.109,0.172-0.141
			c0.246-0.104,0.388-0.381,0.51-0.605c0.203-0.35,0.281-0.68,0.345-1.074c0.062-0.406,0.069-0.758-0.148-1.125
			C529.089,1844.496,528.602,1844.217,528.088,1844.217z"/>
		<path style="fill-rule:evenodd;clip-rule:evenodd;" d="M534.122,1972.432c-0.663,0-1.025,0.604-0.917,1.205
			c0.146,0.82,0.302,1.572,0.972,2.129c0.23,0.193,0.602,0.08,0.609-0.252c0.005-0.338,0.115-0.662,0.134-0.998
			c0.014-0.301,0.067-0.59,0.122-0.879C535.151,1973.035,534.786,1972.432,534.122,1972.432z"/>
		<path style="fill-rule:evenodd;clip-rule:evenodd;" d="M448.553,1335.33c-0.927,0-1.951,0.844-1.845,1.844
			c0.064,0.633,0.101,1.27,0.247,1.885c0.098,0.416,0.186,0.813,0.504,1.133c0.263,0.262,0.715,0.518,1.094,0.518
			c0.827,0,1.395-0.783,1.564-1.504c0.156-0.668,0.21-1.348,0.28-2.031C450.502,1336.174,449.479,1335.33,448.553,1335.33z"/>
		<path style="fill-rule:evenodd;clip-rule:evenodd;" d="M812.571,1174.707c-0.817-0.48-2.037-0.23-2.482,0.65
			c-0.5,0.975-0.791,1.922-0.882,3.016c-0.096,1.164,0.775,2.697,2.045,2.721c0.573,0.102,1.253-0.102,1.36-0.779
			c0,0,0-0.004,0-0.008c0.523-0.914,0.18-2.152,0.611-3.119C813.626,1176.285,813.491,1175.244,812.571,1174.707z"/>
		<path style="fill-rule:evenodd;clip-rule:evenodd;" d="M1325.242,1321.44c-0.662,0.516-1.178,1.117-1.664,1.801
			c-0.853,1.191-0.217,2.98,0.962,3.668c1.316,0.771,2.846,0.246,3.658-0.963c0.014-0.018,0.02-0.027,0.028-0.037
			c0.052-0.064,0.114-0.119,0.168-0.178c0.224-0.236,0.472-0.445,0.723-0.645c0.46-0.363,0.746-1.117,0.954-1.625
			c0.33-0.816-0.102-1.701-0.616-2.309c-0.595-0.717-1.631-0.775-2.468-0.604C1326.297,1320.688,1325.797,1321.008,1325.242,1321.44
			z"/>
		<path style="fill-rule:evenodd;clip-rule:evenodd;" d="M1408.203,90.897c-0.209-0.762-0.9-1.589-1.723-1.724
			c-0.672-0.11-1.314-0.21-1.956-0.42c-0.866-0.282-1.787,0.635-1.501,1.502c0.208,0.644,0.31,1.29,0.419,1.957
			c0.134,0.822,0.958,1.516,1.724,1.724c0.854,0.234,1.779-0.011,2.401-0.636C1408.189,92.678,1408.439,91.748,1408.203,90.897z"/>
		<path style="fill-rule:evenodd;clip-rule:evenodd;" d="M874.594,1975.057c-0.324,0-0.588,0.326-0.49,0.641
			c0.031,0.09,0.059,0.184,0.089,0.279c0.052,0.174,0.214,0.305,0.401,0.305c0.189,0,0.344-0.131,0.401-0.305
			c0.028-0.096,0.054-0.189,0.088-0.279C875.176,1975.383,874.912,1975.057,874.594,1975.057z"/>
		<path style="fill-rule:evenodd;clip-rule:evenodd;" d="M866.785,1971.318c-0.355-0.008-0.692-0.158-1.041-0.158
			c-0.33,0-0.676,0.148-0.965,0.283c-0.246,0.117-0.219,0.494,0,0.621c0.314,0.176,0.549,0.436,0.903,0.535
			c0.362,0.102,0.724,0.182,1.103,0.203C867.739,1972.861,867.748,1971.322,866.785,1971.318z"/>
		<path style="fill-rule:evenodd;clip-rule:evenodd;" d="M550.918,298.702c-1.729-0.041-3.32,1.744-3.737,3.369
			c-0.358,1.399-0.484,2.977,0.449,4.152c0.281,0.501,0.677,0.894,1.296,1.063c0.808,0.223,1.538-0.135,2.053-0.715
			c0.724-0.587,1.09-1.436,1.562-2.242c0.14-0.311,0.27-0.626,0.403-0.939c0.01-0.024,0.017-0.048,0.023-0.068
			c0.024-0.041,0.055-0.099,0.098-0.19c0.412-0.825,0.673-1.607,0.348-2.53C553.026,299.482,552.135,298.729,550.918,298.702z"/>
		<path style="fill-rule:evenodd;clip-rule:evenodd;" d="M664.769,1183.947c-0.348-0.207-0.837-0.143-1.122,0.146
			c-0.116,0.115-0.19,0.248-0.231,0.393c-0.121,0.141-0.226,0.303-0.33,0.469c-0.718,1.143,0.216,2.643,1.514,2.643
			c0.616,0,1.197-0.338,1.515-0.867c0.291-0.502,0.359-1.281,0-1.775C665.751,1184.459,665.366,1184.029,664.769,1183.947z"/>
		<path style="fill-rule:evenodd;clip-rule:evenodd;" d="M1018.05,1181.756c0.218-1.123-0.111-2.193-0.286-3.309
			c-0.169-1.029-0.645-2.133-0.981-3.125c-0.529-1.529-2.023-2.525-3.661-2.076c-1.776,0.492-2.849,2.754-1.776,4.373
			c1.217,1.846,2.357,4.639,4.693,5.281C1016.848,1183.117,1017.882,1182.633,1018.05,1181.756z"/>
		<path style="fill-rule:evenodd;clip-rule:evenodd;" d="M682.57,1327.396c0.346,0,0.656-0.086,0.941-0.244
			c0.319-0.141,0.595-0.363,0.784-0.689c0.143-0.238,0.21-0.488,0.218-0.742c0.012-0.094,0.019-0.189,0.019-0.285
			c0-0.461-0.162-0.93-0.467-1.277c-0.182-0.918-0.988-1.629-1.956-1.629c-1.033,0-2.063,0.906-1.995,1.994
			c0.056,0.873,0.386,1.721,1.061,2.301C681.588,1327.174,682.016,1327.396,682.57,1327.396z"/>
		<path style="fill-rule:evenodd;clip-rule:evenodd;" d="M1166.824,1193.893c-0.601,0-1.178,0.234-1.6,0.662
			c-0.56,0.557-0.816,1.434-0.581,2.199c0.041,0.146,0.09,0.297,0.135,0.445c0.272,0.906,1.081,1.553,2.046,1.553
			c0.959,0,1.767-0.646,2.041-1.553c0.05-0.148,0.096-0.299,0.134-0.445c0.178-0.574,0.076-1.234-0.222-1.746
			C1168.373,1194.32,1167.62,1193.893,1166.824,1193.893z"/>
		<path style="fill-rule:evenodd;clip-rule:evenodd;" d="M733.283,1501.703c0.007-0.004,0.01-0.004,0.018-0.004
			c-0.049,0.006-0.097,0.006-0.146,0.006c-0.263,0.01-0.477,0.098-0.693,0.193c-0.015,0.006-0.03,0.012-0.047,0.016
			c-0.021,0-0.041,0.002-0.061,0.002c-0.811-0.008-1.488,0.686-1.488,1.488c0,0.773,0.676,1.537,1.488,1.49
			c0.507-0.033,0.927-0.135,1.38-0.369c0.5-0.262,0.792-0.73,0.906-1.266c0.094-0.443,0.008-0.889-0.318-1.211
			C734.024,1501.748,733.668,1501.67,733.283,1501.703z"/>
		<path style="fill-rule:evenodd;clip-rule:evenodd;" d="M663.641,765.753c1.639,0.363,2.814-1.383,2.071-2.827
			c-0.026-0.052-0.056-0.103-0.083-0.154c0.01-0.024,0.02-0.049,0.027-0.073c0.068,0.003,0.132,0.004,0.195,0.011
			c0.427,0.074,0.842,0.189,1.256,0.309c0.981,0.286,1.89,0.661,2.919,0.738c1.012,0.077,1.902-0.286,2.473-1.136
			c0.429-0.639,0.392-1.548,0-2.201c-0.457-0.757-1.181-1.09-1.952-1.417c0.885,0.377-0.222-0.108-0.502-0.195
			c-0.222-0.068-0.445-0.142-0.669-0.214c-1.03-0.332-2.042-0.584-3.114-0.727c-1.095-0.144-2.199,0.032-3.172,0.563
			c-0.302,0.164-0.565,0.367-0.795,0.596c-0.182-0.007-0.37,0.013-0.56,0.066c-0.907,0.249-1.726,1.377-1.327,2.338
			c0.094,0.231,0.163,0.469,0.235,0.707c-0.073,0.057-0.147,0.12-0.216,0.19c-0.878,0.109-1.622,0.88-1.596,1.792
			c0.042,1.347,0.873,2.531,2.01,3.208C662.105,768.081,663.528,767.108,663.641,765.753z"/>
		<path style="fill-rule:evenodd;clip-rule:evenodd;" d="M1302.972,747.029c-0.138-0.213-0.27-0.431-0.396-0.653
			c-0.132-0.232-0.247-0.477-0.385-0.711c-0.067-0.113-0.132-0.232-0.192-0.353c0.662-0.019,1.256-0.355,1.457-1.076
			c0.198-0.735-0.246-1.728-1.058-1.863c-0.5-0.083-0.987-0.147-1.491-0.086c0.085-0.012-1.013,0.111-0.527,0.094
			c-0.252,0.011-0.507,0.054-0.749,0.126c-0.955,0.293-1.683,0.979-2.166,1.841c-0.643,1.145-0.522,2.731-0.336,3.972
			c0.063,0.436,0.165,0.863,0.27,1.287c0.028,0.1,0.046,0.211,0.057,0.302c0,0.017,0,0.034,0,0.054
			c0.025,2.674,2.99,4.428,5.329,3.058C1305.059,751.689,1305.031,748.487,1302.972,747.029z"/>
		<path style="fill-rule:evenodd;clip-rule:evenodd;" d="M1042.094,238.641c-0.128-0.027-0.268-0.046-0.446-0.05
			c-0.818-0.511-1.9-0.541-2.746-0.047c-0.591,0.348-1.033,0.923-1.217,1.582c-0.202,0.735-0.048,1.378,0.266,2.044
			c0.491,1.034,1.385,1.813,2.48,2.141c1.745,0.523,3.627-0.542,4.034-2.325C1044.846,240.347,1043.763,238.79,1042.094,238.641z"/>
		<path style="fill-rule:evenodd;clip-rule:evenodd;" d="M1144.492,102.412c-0.612-1.051-1.699-1.703-2.85-1.836
			c-0.045-0.015-0.045-0.013-0.023-0.001c-0.008-0.001-0.014-0.001-0.021-0.001c-0.242-0.107-0.41-0.165-0.695-0.234
			c-0.256-0.034-0.512-0.067-0.765-0.103c-0.113,0.023-0.214,0.042-0.306,0.06c-0.561-0.178-1.181,0.029-1.48,0.576
			c-0.469,0.452-0.859,0.913-1.015,1.602c-0.151,0.672-0.135,1.254,0.01,1.84c0.052,0.34,0.135,0.659,0.251,0.974
			c0.147,0.623,0.454,1.201,0.961,1.706c1.455,1.457,3.892,1.457,5.344,0C1145.104,105.795,1145.352,103.88,1144.492,102.412z
			 M1139.51,100.291c0.037,0.014,0.071,0.028,0.104,0.044C1139.268,100.395,1139.23,100.381,1139.51,100.291z"/>
		<path style="fill-rule:evenodd;clip-rule:evenodd;" d="M1220.789,267.976c-0.102-1.405-0.28-2.783-0.514-4.175
			c-0.25-1.494-0.392-3.057-1.569-4.162c-1.144-1.077-2.842-1.077-3.985,0c-1.104,1.038-1.284,2.459-1.519,3.869
			c-0.252,1.484-0.456,2.962-0.567,4.468c-0.16,2.218,1.98,4.079,4.079,4.079C1218.812,272.055,1220.956,270.194,1220.789,267.976z"
			/>
		<path style="fill-rule:evenodd;clip-rule:evenodd;" d="M1312.787,251.603c-0.063-0.11-0.115-0.22-0.173-0.333
			c-0.083-0.194-0.266-0.604-0.256-0.597c-0.291-0.533-0.745-0.915-1.321-1.095c-0.424-0.209-0.898-0.184-1.299,0.101
			c-1.182,0.58-1.434,1.818-1.279,3.095c0.079,0.642,0.204,1.165,0.68,1.642c0.587,0.585,1.463,0.816,2.258,0.598
			C1312.881,254.605,1313.495,252.915,1312.787,251.603z"/>
		<path style="fill-rule:evenodd;clip-rule:evenodd;" d="M573.572,523.259c-0.081-0.194-0.264-0.603-0.257-0.597
			c-0.291-0.535-0.744-0.915-1.319-1.096c-0.427-0.208-0.899-0.183-1.3,0.1c-1.183,0.579-1.433,1.819-1.277,3.095
			c0.075,0.642,0.202,1.166,0.676,1.643c0.588,0.584,1.46,0.816,2.26,0.596c1.481-0.407,2.097-2.098,1.385-3.41
			C573.681,523.48,573.633,523.371,573.572,523.259z"/>
		<path style="fill-rule:evenodd;clip-rule:evenodd;" d="M1322.302,115.686c1.462,0.856,3.278,0.309,4.155-1.089
			c0.486-0.778,0.848-1.712,0.827-2.64c-0.03-1.344-0.725-2.287-1.782-2.857c-0.608-0.412-1.318-0.695-2.066-0.391
			c-0.528,0.215-0.57,0.222-1.009,0.594c-0.185,0.188-0.331,0.4-0.444,0.63c-0.096,0.117-0.184,0.239-0.263,0.371
			c-0.196,0.334-0.289,0.693-0.401,1.051c-0.034,0.058-0.066,0.117-0.106,0.177C1320.335,112.934,1320.909,114.868,1322.302,115.686
			z"/>
		<path style="fill-rule:evenodd;clip-rule:evenodd;" d="M1442.276,1477.48c-0.128-0.057-0.255-0.113-0.374-0.186
			c-0.071-0.057-0.146-0.111-0.219-0.168c-0.486-0.375-0.915-0.648-1.559-0.648c-0.581,0-1.146,0.236-1.556,0.648
			c-0.413,0.406-0.646,0.973-0.646,1.553c0,0.344,0.076,0.631,0.211,0.891c-0.118,0.639-0.103,1.211,0.233,1.785
			c0.205,0.35,0.481,0.627,0.831,0.834c0.362,0.207,0.755,0.311,1.172,0.311c0.565,0.076,1.091-0.191,1.578-0.443
			c0.512-0.26,0.963-0.701,1.203-1.223c0.283-0.623,0.438-1.205,0.246-1.889C1443.246,1478.385,1442.823,1477.732,1442.276,1477.48z
			"/>
		<path style="fill-rule:evenodd;clip-rule:evenodd;" d="M1317.687,1180.016c-0.684-0.971-1.756-1.533-2.96-1.203
			c-1.375,0.385-2.203,1.846-1.827,3.223c0.013,0.055,0.056,0.283,0.081,0.406c-0.007,0.156-0.025,0.326-0.013,0.254
			c-0.077,0.48-0.151,0.955-0.138,1.447c0.029,1.361,0.902,2.57,2.228,2.93c1.665,0.461,3.212-0.549,3.736-2.117
			C1319.363,1183.258,1318.673,1181.424,1317.687,1180.016z"/>
		<path style="fill-rule:evenodd;clip-rule:evenodd;" d="M1309.979,1173.152c-0.251-0.252-0.55-0.422-0.894-0.521
			c-0.327-0.088-0.618-0.082-0.907-0.012c-0.243,0.004-0.48,0.061-0.723,0.209c-0.324,0.189-0.571,0.479-0.709,0.818
			c-0.361,0.561-0.256,1.416,0.056,1.963c0.023,0.039,0.055,0.105,0.082,0.168c0,0.039,0,0.082,0,0.127
			c-0.068,1.162,1.024,2.143,2.142,2.143c1.072,0,2.271-0.98,2.142-2.143c-0.071-0.656-0.166-1.076-0.438-1.662
			C1310.545,1173.834,1310.262,1173.488,1309.979,1173.152z"/>
		<path style="fill-rule:evenodd;clip-rule:evenodd;" d="M918.326,1483.334c-0.75,0.41-1.352,0.305-2.244,0.617
			c-1.416,0.492-2.829,0.865-3.605,2.291c-0.807,1.457-0.334,3.865,1.574,4.229c0.83,0.156,1.604,0.236,2.408-0.061
			c0.9-0.332,1.584-0.873,2.346-1.443c0.542-0.412,0.935-1,1.314-1.564c0.223-0.324,0.581-0.768,0.889-1.219
			C922.176,1484.475,920.063,1482.375,918.326,1483.334z"/>
		<path style="fill-rule:evenodd;clip-rule:evenodd;" d="M564.082,1461.965c0.02-0.059,0.034-0.113,0.054-0.168
			c0.197-0.645-0.021-1.381-0.495-1.854c-0.466-0.469-1.203-0.684-1.853-0.486c-0.047,0.014-0.099,0.027-0.149,0.043
			c-0.041,0.01-0.08,0.025-0.122,0.039c-0.396,0.119-0.69,0.275-0.984,0.568c-0.389,0.391-0.612,0.924-0.612,1.475
			c0,0.553,0.223,1.08,0.612,1.477c0.39,0.383,0.924,0.604,1.471,0.604c0.556,0,1.087-0.221,1.475-0.604
			c0.291-0.295,0.45-0.584,0.568-0.977C564.062,1462.039,564.072,1462.006,564.082,1461.965z"/>
		<path style="fill-rule:evenodd;clip-rule:evenodd;" d="M557.473,108.945c-0.162-0.224-0.317-0.46-0.474-0.694
			c-0.25-0.38-0.467-0.781-0.669-1.189c-0.014-0.032-0.027-0.06-0.04-0.086c-0.15-0.388-0.292-0.775-0.502-1.137
			c-0.358-0.639-0.838-1.097-1.462-1.475c-1.217-0.739-2.671-0.22-3.422,0.896c-1.754,2.631,0.847,5.927,2.462,7.945
			c1.008,1.256,3.125,1.041,4.167,0c1.242-1.239,0.987-2.9,0-4.168C557.703,109.251,557.683,109.221,557.473,108.945z"/>
		<path style="fill-rule:evenodd;clip-rule:evenodd;" d="M1021.7,1950.615c-0.568-0.174-1.176-0.201-1.743-0.006
			c-0.083,0.025-0.163,0.049-0.249,0.066c-0.031,0-0.064,0.008-0.095,0c-1.478-0.053-2.71,1.281-2.71,2.713
			c0,0.717,0.292,1.408,0.796,1.912c0.464,0.463,1.237,0.871,1.914,0.795c1.302-0.135,2.972-0.553,3.544-1.889
			c0.275-0.635,0.438-1.189,0.248-1.885C1023.174,1951.482,1022.517,1950.867,1021.7,1950.615z"/>
		<path style="fill-rule:evenodd;clip-rule:evenodd;" d="M755.682,973.784c-0.411-0.947-1.331-1.606-2.164-2.155
			c-1.555-1.031-3.563,0.018-4.1,1.641c-0.169,0.211-0.317,0.408-0.456,0.606c-0.058-0.018-0.072-0.018-0.007,0.01
			c-0.005,0.003-0.005,0.003-0.005,0.007c-0.612-0.237-1.213-0.39-1.815-0.4c-0.578-0.492-1.196-0.885-1.989-1.157
			c-0.736-0.249-1.646-0.082-2.306,0.304c-0.998,0.583-1.351,1.502-1.484,2.588c-0.153,1.247,0.393,2.473,1.058,3.491
			c0.591,0.902,1.253,1.944,2.046,2.673c1.041,0.959,2.422,1.395,3.817,1.01c0.359-0.101,0.681-0.244,0.971-0.416
			c0.846,0.153,1.7,0.268,2.551,0.353c2.238,0.216,4.473-2.582,3.59-4.714c-0.026-0.065-0.054-0.131-0.077-0.198
			C756.157,976.301,756.251,975.087,755.682,973.784z"/>
		<path style="fill-rule:evenodd;clip-rule:evenodd;" d="M927.39,1694.928c-0.229-0.105-0.445-0.238-0.657-0.391
			c0.205,0.152,0.4,0.309,0.604,0.463c-0.434-0.336-0.874-0.656-1.313-0.982c0.026,0.023,0.057,0.043,0.086,0.068
			c-0.249-0.182-0.494-0.32-0.844-0.42c-0.465-0.133-0.904-0.156-1.359-0.066c-0.301,0.027-0.591,0.109-0.892,0.285
			c-0.456,0.27-0.899,0.754-1.053,1.285c-0.841,1.918,0.782,3.994,2.399,4.949c1.406,0.842,3.285,0.328,4.111-1.08
			c0.406-0.693,0.514-1.539,0.303-2.313C928.586,1696.043,928.067,1695.234,927.39,1694.928z"/>
		<path style="fill-rule:evenodd;clip-rule:evenodd;" d="M1113.804,1446.238c-0.122-0.574-0.62-1.066-0.976-1.514
			c-0.554-0.701-1.742-0.42-2.146,0.279c-0.406,0.697-0.626,1.318-0.777,2.115c0.108-0.568-0.234,0.729-0.264,0.906
			c-0.039,0.23-0.095,0.455-0.155,0.676c-0.174,0.004-0.347,0-0.519-0.014c-0.472-0.02-0.939-0.078-1.41-0.129
			c-1.104-0.121-2.198-0.156-3.306-0.215c-1.052-0.055-2.23,0.803-2.436,1.854c-0.064,0.316-0.102,0.631-0.117,0.928
			c-0.063-0.018-0.125-0.039-0.186-0.055c-0.15-0.037-0.309-0.07-0.46-0.096c0.426,0.078-1.426-0.309-0.697-0.107
			c-1.471-0.4-3.354,0.771-3.2,2.436c0.032,0.324,0.074,0.629,0.126,0.922c-0.876-0.158-1.641,0.074-2.019,1.135
			c-0.41,1.148,0.378,2.02,0.969,2.91c0.563,0.842,1.164,1.668,1.763,2.486c1.502,2.043,3.609,3.68,5.989,4.547
			c2.509,0.912,4.544-1.793,4.051-4.047c-0.03-0.133-0.063-0.264-0.1-0.393c0.266-0.063,0.518-0.158,0.759-0.295
			c0.973-0.578,1.732-1.996,1.271-3.131c-0.552-1.35-1.259-2.561-2.021-3.801c-0.039-0.064-0.078-0.131-0.117-0.199
			c0.107,0.006,0.216,0.018,0.324,0.025c1.004,0.074,2.137,0.129,3.086-0.262c1.439-0.6,2.362-1.645,2.769-3.166
			c0.225-0.834,0.303-1.902,0.026-2.729C1113.922,1446.963,1113.88,1446.596,1113.804,1446.238z"/>
	</g>
</g>
<g id="Layer_2">
	<g>
		<g>
			<path d="M1252.962,965.517c-23.498-121.21-71.618-198.442-68.264-208.097c3.357-9.654,7.832-17.163,7.832-17.163
				s-39.726-37.542-158.349-37.542c-118.625,0-158.348,37.542-158.348,37.542s4.474,7.509,7.831,17.163
				c3.357,9.654-44.764,86.887-68.265,208.097c-23.501,121.213-22.381,225.258,43.644,257.438l13.431-2.143
				c-79.454-20.387-71.623-156.611-50.358-259.586c16.071-77.847,54.834-193.08,77.215-208.097
				c22.381-15.018,92.325-26.816,134.85-26.816c42.525,0,112.469,11.799,134.85,26.816c22.382,15.017,61.146,130.25,77.216,208.097
				c21.261,102.975,29.096,239.199-50.356,259.586l13.429,2.143C1275.346,1190.774,1276.466,1086.729,1252.962,965.517z
				 M895.133,749.94c-1.648,4.396-7.691,5.493-10.439,1.099c-2.747-4.394-4.943-13.734,2.748-13.734
				C892.355,737.304,896.782,745.544,895.133,749.94z M908.868,743.348c-3.297,3.297-8.879,3.151-10.988-3.847
				c-2.72-9.027,4.944-14.834,8.241-10.987C910.768,733.935,912.165,740.051,908.868,743.348z M923.915,737.769
				c-5.172,4.85-9.546,0.083-11.201-4.86c-2.702-8.074,4.671-14.701,7.968-11.953C925.028,724.578,926.807,735.06,923.915,737.769z
				 M941.054,733.566c-3.686,3.687-9.924,2.976-12.406-5.053c-3.437-11.115,7.691-14.283,9.889-9.889
				C940.518,722.586,943.963,730.655,941.054,733.566z M957.543,728.393c-1.741,2.125-6.117,4.933-9.118,0.67
				c-2.522-3.581-3.497-9.644-2.198-13.734c1.293-4.073,8.793-4.396,10.44-1.648C958.188,716.218,960.133,725.231,957.543,728.393z
				 M967.655,728.514c-6.042,0-8.548-14.638-4.615-17.259c3.297-2.198,8.376-2.487,10.023,3.557
				C974.71,720.856,973.697,728.514,967.655,728.514z M990.276,721.56c-0.255,6.063-7.653,5.976-9.824,1.576
				c-1.942-3.942-2.641-14.789,3.156-15.392C990.714,707.003,990.534,715.497,990.276,721.56z M1005.758,717.656
				c-0.549,6.593-7.69,8.789-9.339,3.295c-1.648-5.495-0.816-14.221,4.129-14.221
				C1004.394,706.731,1006.308,711.063,1005.758,717.656z M1020.946,716.613c-0.55,7.023-8.79,8.777-9.339,2.926
				c-0.55-5.852-0.55-12.293,3.845-12.293C1020.396,707.246,1021.496,709.588,1020.946,716.613z M1036.556,715.642
				c-1.1,7.795-4.945,8.393-7.692,5.394c-2.748-2.997-3.296-13.788,2.197-13.788
				C1035.456,707.248,1037.654,707.848,1036.556,715.642z M1048.869,722.251c-6.592-1.896-7.599-15.922,0-14.541
				C1059.307,709.606,1055.461,724.149,1048.869,722.251z M1065.254,722.146c-6.592-0.55-4.35-11.911,1.647-10.988
				C1074.043,712.257,1071.847,722.695,1065.254,722.146z M1086.228,723.472c-8.79,0-6.66-11.951,0-11.241
				C1092.821,712.935,1095.02,723.472,1086.228,723.472z M1103.496,725.718c-6.899-2.16-3.512-12.099,2.933-10.083
				C1112.871,717.653,1109.94,727.734,1103.496,725.718z M1119.063,728.643c-3.848-1.1-2.198-10.988,2.749-8.241
				C1126.758,723.149,1125.447,730.466,1119.063,728.643z M1132.38,731.856c-2.886-0.825-1.647-8.24,2.062-6.18
				C1138.149,727.735,1137.169,733.223,1132.38,731.856z"/>
		</g>
		<g>
			<path d="M1034.42,619.527c-161.638,0-231.061,48.091-235.026,94.359c-2.622,30.581,31.453,60.287,74.265,67.276
				c0,0,5.24-11.358,6.989-14.854c1.748-3.495-11.357-28.832-11.357-28.832s54.17-39.316,156.392-39.316
				c114.204,0,161.836,32.944,171.81,41.032c10.264-16.602,28.964-30.63,49.239-27.927c-13.98,4.368-49.803,25.338-55.918,42.812
				c0.606-2.166,1.392-4.357,2.327-6.545c-2.17,2.691-4.229,5.924-4.949,9.166c-1.746,7.864,2.622,22.716,2.622,22.716
				c51.55-9.61,74.264-34.947,76.014-55.916C1270.678,677.352,1216.152,619.527,1034.42,619.527z M811.625,727.867
				c13.979-15.728,44.56-1.748,52.421,19.221C850.068,727.867,821.236,737.477,811.625,727.867z M899.87,655.349
				c-75.139,21.844-95.234,48.053-91.739,75.139c-14.854-14.852-0.874-51.548,40.191-71.644
				c41.064-20.096,135.425-38.442,207.941-34.074c-18.348,1.747-60.284,5.242-57.664,8.736c2.62,3.495,82.129,5.242,103.971,9.61
				C1048.399,641.37,975.008,633.505,899.87,655.349z"/>
		</g>
		<path d="M859.044,1222.954c0,0,31.629-72.229,168.722-170.521c137.094-98.291,205.639-93.119,232.8-90.532
			s45.265,40.094,1.293,75.015c-1.293-12.934-2.586-25.867-2.586-25.867s20.695-21.986-1.292-21.986
			c-21.988,0-93.121-7.759-213.402,77.599c-120.279,85.359-153.907,148.734-153.907,148.734L859.044,1222.954z"/>
		<path d="M1209.474,1222.954c0,0-21.757-76.609-161.014-171.813c-126.747-86.654-213.347-91.828-240.508-89.241
			c-27.161,2.587-45.265,40.094-1.292,75.015c1.292-12.934,2.585-25.867,2.585-25.867s-20.695-21.986,1.293-21.986
			c21.988,0,106.634,1.691,223.696,84.066c104.761,73.719,135.8,140.975,135.8,140.975L1209.474,1222.954z"/>
		<path d="M853.167,654.086c0,0,2.587-77.602,11.64-85.36c9.053-7.759,64.666-36.213,187.533-33.626
			c122.867,2.587,178.479,53.026,178.479,53.026l10.348,81.481c0,0-37.506-54.321-179.774-51.734
			C926.908,620.317,879.034,643.738,853.167,654.086z"/>
		<path d="M868.686,510.526l-3.88,58.199c0,0,31.067-42.928,178.481-40.093c134.506,2.587,187.532,59.493,187.532,59.493
			s-6.469-33.624-3.881-51.732c-19.399-20.693-89.246-52.049-184.946-53.026C915.247,482.072,868.686,510.526,868.686,510.526z"/>
		<path d="M1166.017,780.972c-5.731-6.101-16.105-8.771-23.919-11.165c-8.341-2.559-16.856-3.146-25.448-1.909
			c-1.559,0.225-1.087,2.583,0.357,2.64c8.107,0.319,15.969,1.928,23.734,4.188c8.062,2.348,15.491,7.65,23.683,8.979
			C1165.992,783.958,1167.209,782.243,1166.017,780.972z"/>
		<path d="M1183.754,823.459c-9.028-6.444-22.742-8.008-33.449-10.413c-10.653-2.394-21.706-3.446-32.489-1.63
			c-2.177,0.366-1.387,3.369,0.484,3.567c11.691,1.24,23.107,2.491,34.593,5.127c9.697,2.225,20.081,7.411,30.074,6.259
			C1184.528,826.19,1185.073,824.4,1183.754,823.459z"/>
		<path d="M1192.957,871.06c-11.28-6.928-25.2-9.646-37.902-13.042c-11.701-3.127-24.053-5.233-36.022-2.909
			c-2.071,0.401-1.965,3.591,0,4.063c12.757,3.07,25.757,4.378,38.489,7.782c11.456,3.062,22.493,8.06,34.5,7.559
			C1193.855,874.438,1194.559,872.044,1192.957,871.06z"/>
		<path d="M1207.273,924.659c-10.193-10.148-27.573-12.768-41.199-15.451c-14.274-2.81-29.992-4.331-44.396-2.157
			c-1.825,0.277-1.795,3.34,0,3.646c14.113,2.389,28.454,2.453,42.619,4.957c14.289,2.526,27.767,10.004,41.95,11.487
			C1207.558,927.276,1208.105,925.487,1207.273,924.659z"/>
		<path d="M1209.768,961.595c-11.516-6.398-26.75-7.853-39.737-9.363c-15.173-1.764-30.685-3.194-45.652,0.508
			c-1.695,0.421-1.156,2.699,0.388,2.855c14.807,1.5,29.563,1.231,44.359,3.339c13.063,1.86,26.538,6.951,39.707,6.114
			C1210.591,964.935,1211.466,962.539,1209.768,961.595z"/>
		<path d="M1226.527,1031.53c-11.734-5.416-26.199-5.758-38.989-7.064c-16.151-1.646-32.329-1.781-48.544-1.479
			c-2.954,0.053-2.948,4.492,0,4.576c14.477,0.422,28.911,1.432,43.327,2.855c14.223,1.404,29.117,5.896,43.324,4.359
			C1227.169,1034.614,1228.276,1032.337,1226.527,1031.53z"/>
		<path d="M1222.722,1067.616c-21.621-13.561-59.379-12.086-83.728-9.455c-2.618,0.281-2.615,3.783,0,4.068
			c12.979,1.414,26.093,1.244,39.119,2.131c14.798,1.01,29.026,6.131,43.654,6.775
			C1223.721,1071.222,1224.244,1068.571,1222.722,1067.616z"/>
		<path d="M1223.103,1110.595c-17.307-18.119-55.996-16.881-78.938-15.4c-3.236,0.209-3.221,4.781,0,5.014
			c13.85,0.998,27.624,1.625,41.372,3.727c12.605,1.926,23.749,8.492,36.23,9.885
			C1223.503,1114.013,1224.139,1111.675,1223.103,1110.595z"/>
		<path d="M1218.319,1151.013c-10.786-18.08-51.095-14.025-68.108-9.584c-1.893,0.492-1.248,2.918,0.424,3.139
			c10.602,1.41,21.245,1.039,31.893,1.814c11.759,0.854,22.732,7.344,34.066,7.637
			C1218.111,1154.058,1219.083,1152.294,1218.319,1151.013z"/>
		<path d="M1213.615,1192.124c-4.508-8.178-14.934-11.4-23.359-14.301c-11.171-3.842-22.317-4.139-33.86-2.492
			c-3.094,0.441-2.125,5.068,0.705,5.211c9.267,0.469,18.549,1.852,27.516,4.244c9.23,2.465,16.92,9.453,26.129,11.074
			C1212.897,1196.237,1214.763,1194.204,1213.615,1192.124z"/>
		<path d="M1194.316,1218.274c-6.115-6.285-16.148-8.395-24.256-11.129c-8.846-2.984-19.656-6.193-28.904-3.639
			c-1.59,0.439-1.46,2.586,0,3.082c8.806,3,18.245,3.924,27.167,6.859c8.022,2.643,16.43,7.756,24.99,7.244
			C1194.528,1220.62,1195.212,1219.198,1194.316,1218.274z"/>
		<g>
			<path d="M1044.988,345.673c-187.894,0-210.765,71.482-201.256,91.858c5.846,12.527,14.198,12.527,34.239,20.878
				c24.008,10.004,12.526,45.094,12.526,45.094s24.341-29.948,156.16-24.217c115.242,5.01,148.646,38.414,148.646,38.414
				s-1.671-14.197-2.507-25.053c-0.835-10.857,0-15.867,19.209-23.382c19.208-7.516,28.394-19.207,31.732-34.239
				C1247.076,419.994,1222.86,345.673,1044.988,345.673z M851.248,433.356c-5.846-2.507,1.302-22.146,6.681-17.536
				C863.774,420.831,857.093,435.863,851.248,433.356z M864.611,409.138c-4.174-8.351,10.021-15.866,11.69-9.185
				C877.971,406.634,868.346,416.607,864.611,409.138z M1023.274,364.878c0.834-6.682,8.351-4.175,9.187-0.834
				C1033.297,367.385,1022.521,370.911,1023.274,364.878z M1004.904,365.714c0.836,4.175-13.361,5.904-13.361,0
				C991.543,359.868,1004.069,361.539,1004.904,365.714z M969.83,369.056c0,5.846-14.197,6.682-14.197,1.67
				C955.633,364.88,969.83,363.21,969.83,369.056z M935.592,375.735c0,5.846-14.182,10.157-15.032,2.505
				C919.724,370.726,935.592,369.89,935.592,375.735z M889.663,392.438c-2.505-7.516,14.195-10.856,14.195-5.011
				C903.858,393.273,891.918,399.205,889.663,392.438z M1036.637,437.531c-24.217,5.846-101.878,13.362-136.118,29.229
				C921.395,449.223,968.162,430.85,1036.637,437.531z M964.82,469.266c-54.28,5.846-60.126,15.03-60.126,15.03
				s8.351-15.03,37.579-20.876c29.227-5.846,73.487-9.186,96.035-5.011C1034.131,462.586,1019.1,463.42,964.82,469.266z
				 M1047.157,364.465c0-4.156,6.127-2.969,6.536,0C1054.102,367.433,1047.157,368.664,1047.157,364.465z"/>
		</g>
		<g>
			<path d="M1130.96,1291.78c-0.894,1.469-1.705,2.949-2.446,4.439c0.96,0.281,1.553,0.459,1.553,0.459l-1.335,3.115
				c-0.399-0.266-0.917-0.52-1.486-0.766c-0.987,2.279-1.801,4.566-2.431,6.842c1.057,0.367,1.692,0.604,1.692,0.604l-1.335,10.686
				c-0.412-0.365-1.111-0.75-1.944-1.141c-0.481,14.404,7.042,26.965,23.759,31.863c25.823,7.568,46.751-1.332,51.649-20.926
				c4.898-19.594,3.563-25.379-0.444-30.721C1186.917,1281.206,1144.765,1269.073,1130.96,1291.78z M1140.753,1306.917
				c-3.56,20.039,3.561,33.844,7.124,37.404c0,0-27.606-8.018-18.255-39.184c9.351-31.166,32.946-22.266,36.51-21.373
				C1166.132,1283.765,1144.313,1286.88,1140.753,1306.917z"/>
			<path d="M1126.507,1306.474c0,0-0.636-0.236-1.692-0.604c-4.054-1.404-14.671-4.832-22.796-5.186l-0.445-6.232
				c0,0,18.646,1.525,25.672,4.576c0.569,0.246,1.087,0.5,1.486,0.766l1.335-3.115c0,0-0.593-0.178-1.553-0.459
				c-5.119-1.496-22.021-6.219-31.394-6.219c0,0-6.23,11.131-2.226,18.699c0,0,21.086,3.936,28.333,7.318
				c0.833,0.391,1.532,0.775,1.944,1.141L1126.507,1306.474z"/>
		</g>
		<path d="M1067.24,1340.431c27.964-1.463,54.719-3.758,63.29-6.352c-0.891-2.225-2.226-4.006-2.226-4.006s-29.692,2.486-59.9,4.609
			C1068.484,1336.661,1068.093,1338.651,1067.24,1340.431z"/>
		<path d="M942.525,1334.546c-21.21-1.486-39.064-3.295-41.294-4.916c-4.897-3.564-6.679-16.477-6.233-21.818
			c0.445-5.344-4.007,0.889-4.007,0.889s-0.892,23.15,9.795,26.27c5.156,1.504,22.753,3.215,43.627,4.582
			C943.401,1338.058,942.762,1336.337,942.525,1334.546z"/>
		<path d="M897.668,1331.854c0,0-71.185,33.664-90.357,78.719c14.221-7.924,74.329-31.523,141.56-35.977
			c4.007-6.232,4.452-20.479,3.562-24.934c-0.89-4.453-40.516-7.57-48.976-9.795
			C894.997,1337.642,897.668,1331.854,897.668,1331.854z"/>
		<path d="M1073.094,1337.642c0,0,0.446,7.127-4.007,10.242c-4.453,3.115-11.133,3.557-12.913,4.895
			c-1.78,1.34-4.451,21.822-1.78,25.826c2.672,4.006,53.432,6.68,98.399,14.693c44.968,8.012,81.438,17.275,81.438,17.275
			s-13.317-31.074-37.806-43.99c-24.488-12.914-36.067-12.023-45.416-14.693s-23.598-9.797-26.269-18.701L1073.094,1337.642z"/>
		<path d="M1261.877,1438.265c-1.783-6.678-9.352-27.6-83.706-35.615c-74.354-8.018-126.892-19.148-130.455-19.148
			s0.89-28.496,1.335-31.166c0.445-2.672-35.62-3.115-41.853-1.781c-6.233,1.336-15.613,4.936-25.823,4.008
			c-4.898-0.443-2.671,4.898,12.912,5.344s12.911,2.225,12.467,3.115c-0.445,0.891-10.24,2.674-16.473,3.119
			c-6.233,0.443-5.789,2.225,1.335,2.225c7.123,0,16.474,1.338,16.919,3.563c0.445,2.225-21.371,1.777-20.926,4.896
			c0.445,3.117,21.37,0,22.707,4.008c1.337,4.008-17.365,3.561-27.604,2.225c-10.24-1.336-20.927-2.229-21.817-6.232
			c-0.89-4.006,0.001-27.16-1.335-28.049c-2.699-1.799-3.118,4.453-3.563,12.467c-0.445,8.014-4.897,16.475-7.568,16.92
			c-2.672,0.443-101.071,14.691-138.471,32.057c-37.4,17.363-32.503,39.627-23.153,40.072c9.35,0.445,105.533-19.859,218.615-21.373
			c99.733-1.336,227.069,21.818,242.654,23.152C1263.657,1453.405,1263.66,1444.944,1261.877,1438.265z M995.176,1418.229
			c-73.02,1.336-135.353,4.898-135.353,4.898s35.621-23.598,142.477-22.707c106.856,0.889,143.813,24.043,143.813,24.043
			S1068.195,1416.896,995.176,1418.229z"/>
		<path d="M1228.87,1234.655c-12.872-10.727-84.738-33.855-198.215-33.855c-90.266,0-186.144,16.73-201.806,37.07
			c-9.912,12.873,6.607,18.236,6.607,18.236s-7.707,12.873,6.306,14.713c17.048,27.053,42.729,43.236,94.397,50.596
			c0.094-2.479,0.904-5.521,4.252-6.035c5.789-0.891,7.125-0.443,13.358-3.115c6.233-2.674,24.933-17.811,55.209-16.92
			c30.276,0.891,48.084,16.029,52.537,18.699c4.454,2.67,14.693,0.887,13.804,9.35c-0.039,0.377-0.076,0.723-0.112,1.068
			c16.774-1.137,31.63-2.791,44.769-4.842c-0.121-0.982-0.148-1.57-0.148-1.57c-4.005-2.674-26.716-8.904-26.716-8.904
			c-7.124-5.787,2.228-21.818,2.228-21.818c4.453-1.334,31.167,4.453,31.167,4.453s8.903-15.139,33.836-16.475
			c19.983-1.068,35.366,11.855,40.694,17.035c12.072-8.525,17.059-16.801,19.254-22.289c9.653,0,11.797-9.654,9.814-13.945
			C1236.702,1252.89,1241.742,1245.382,1228.87,1234.655z M834.444,1245.921c11.132-20.48,113.093-41.854,181.659-38.291
			c-24.489,2.67-91.719,8.904-123.331,16.475C867.683,1230.114,849.582,1234.788,834.444,1245.921z M925.702,1262.396
			c0.445-6.68,9.795-6.234,10.242-0.891C936.39,1266.849,925.364,1267.46,925.702,1262.396z M963.103,1256.606
			c-0.445-6.232,9.35-4.008,9.35,0.445S963.619,1263.835,963.103,1256.606z M1007.625,1250.376c0.376-5.787,9.798-3.563,9.798,1.781
			C1017.423,1257.499,1007.243,1256.216,1007.625,1250.376z M1062.383,1250.106c-1.863,5.07-10.286,4.205-9.786-1.691
			C1053.064,1242.923,1064.245,1245.036,1062.383,1250.106z M844.241,1264.62c13.801-15.137,114.873-40.07,220.839-28.494
			C1018.774,1238.796,889.192,1245.03,844.241,1264.62z M1100.704,1251.175c-1.144,3.988-8.894,4.654-7.616-1.598
			C1094.229,1243.995,1101.846,1247.185,1100.704,1251.175z M1136.137,1254.89c-1.992,4.354-9.046,0.576-7.375-2.933
			C1131.341,1246.538,1138.125,1250.54,1136.137,1254.89z M1164.826,1257.521c-1.025,4.424-7.619,1.613-7.159-1.58
			C1158.348,1251.208,1165.85,1253.101,1164.826,1257.521z"/>
		<g>
			<path d="M1072.203,1320.722c-1.336-3.563-6.678-0.441-12.021-3.113c-5.343-2.674-21.816-19.152-54.764-18.703
				c-32.948,0.447-54.32,18.254-54.32,18.254s-10.24-0.887-11.577,2.674c-1.75,4.662,1.337,17.361,5.789,21.369
				c4.452,4.008,27.604,7.572,40.516,8.461c12.912,0.891,28.941,2.227,35.62,2.227c6.678,0,37.4-0.443,41.853-2.67
				C1067.75,1346.991,1073.54,1324.286,1072.203,1320.722z M950.653,1340.757c0,0,0,0-4.453-3.115
				c-4.454-3.115-2.227-17.363-2.227-17.363l7.125,1.779L950.653,1340.757z M966.236,1341.202c0,0-5.343,0.893-7.57-0.445
				c-2.227-1.338-0.89-17.363-0.89-17.363s9.35-0.891,9.35,0.892S966.236,1341.202,966.236,1341.202z M981.82,1344.321
				c0,0-7.123,0-8.46-1.336c-1.336-1.334,0.445-16.475,0.445-16.475l9.795,1.336L981.82,1344.321z M1004.526,1346.546
				c0,0-10.24,0.891-12.467,0c-2.227-0.891-0.89-19.145-0.89-19.145l13.803,1.334L1004.526,1346.546z M1020.556,1346.101
				c0,0-1.336,0.891-4.008,0.445c-2.672-0.445-1.78-17.81-1.78-17.81l7.123-0.889L1020.556,1346.101z M1032.133,1344.767
				c0,0-1.337,1.334-3.118,0.889c-1.782-0.445-1.78-16.92-1.78-16.92l4.898-0.889V1344.767z M1021.446,1309.146
				c-7.124-0.889,13.356,8.014,15.138,12.467s-26.716-13.801-35.175-12.912c-8.458,0.891,24.934,11.574,14.248,13.357
				c-10.685,1.783-20.034-8.904-25.823-8.904c-5.788,0,13.803,10.688,9.35,10.688c-4.453,0-33.395-3.115-37.846-6.232
				c0,0,12.589-17.656,58.326-13.361c14.248,1.338,29.83,14.25,30.276,16.031
				C1050.388,1322.058,1028.569,1310.036,1021.446,1309.146z"/>
		</g>
		<path d="M1259.074,1460.392c-3.582-5.727-148.915-20.764-231.964-21.479c-37.943-0.326-204.014,7.254-241.271,17.898
			c-5.012,1.432-21.477,48.686-28.637,72.311c-7.16,23.625-24.172,63.883-29.268,67.021
			c23.541-13.326,148.114-34.805,295.596-34.805s273.485,29.354,287.805,35.08
			C1305.607,1586.396,1262.655,1466.12,1259.074,1460.392z M1018.519,1545.587c-69.446,0-206.19,12.889-206.19,12.889
			s10.025-78.037,14.319-93.787c0,0,78.036-10.742,191.87-10.742c113.834,0,176.836,17.9,176.836,17.9l12.17,87.344
			C1207.524,1559.19,1087.964,1545.587,1018.519,1545.587z"/>
		<path d="M704.336,1680.886c0,0-6.315,7.859-7.509-2.146c-1.194-10.006-11.934-65.131,26.727-76.586
			c38.661-11.455,166.097-38.662,302.84-34.365c136.743,4.295,293.535,26.492,302.841,40.094
			c9.307,13.602,20.047,68.016,12.17,74.457s-3.581-20.762-105.96-42.24s-318.362-35.678-435.288-6.445
			C765.793,1642.245,703.018,1658.671,704.336,1680.886z"/>
		<g>
			<path d="M1335.678,1678.044c-5.728-7.879-23.625-15.035-23.625-15.035s17.9,9.303,8.591,11.453
				c-9.309,2.148-56.551-28.633-161.081-37.941c-104.531-9.311-252.729-10.742-331.482,6.441s-124.574,45.105-123.142,27.922
				c-4.296,2.146-2.148,7.16-2.148,7.16c0,10.023,73.743,87.344,318.591,87.344
				C1266.23,1765.388,1341.405,1685.921,1335.678,1678.044z M1074.362,1645.108c19.331-10.74,73.023,8.592,42.238,34.367
				c-30.784,25.773-105.242,15.75-105.242,15.75C1066.485,1688.784,1079.372,1660.146,1074.362,1645.108z M905.4,1707.396
				c-30.597-14.652-35.105-40.492-35.708-45.621c-0.083-0.584-0.089-0.914-0.089-0.914s0.022,0.33,0.089,0.914
				c0.721,5.008,7.615,29.965,73.652,49.199c73.742,21.48,142.471,15.75,184.711,3.58s60.855-50.83,52.264-67.295
				c22.193-0.719,42.241,7.873,42.241,7.873s0.727,51.551-89.488,63.721C1042.859,1731.022,956.231,1731.739,905.4,1707.396z
				 M1241.173,1726.011c-83.764,27.922-122.426,21.477-141.755,18.613c0,0,71.594,1.432,133.881-23.627
				c62.288-25.057,74.461-35.797,63.72-43.672C1307.757,1678.044,1324.937,1698.091,1241.173,1726.011z"/>
		</g>
		<g>
			<path d="M802.557,609.251c-13.482,8.668-75.113,127.117-113.633,313.939c-38.52,186.821-54.891,422.757-52.001,458.39
				c2.89,35.631,46.223,55.854,77.04,66.447c21.777,7.486,43.538,26.02,54.439,36.254c4.382-12.205,7.85-22.195,9.119-26.635
				c-3.853-17.33-3.853-27.926,8.667-37.557c12.52-9.629,20.223-16.363,32.743-34.662c-23.112,17.334-38.52,17.336-67.41,14.445
				c-28.89-2.891-72.226-8.67-72.226-60.67c0-52.002,27.929-360.168,48.151-450.69c20.223-90.522,53.927-208.006,74.15-227.266
				c20.223-19.26,41.41-26.002,48.15-17.335c0-9.699,1.353-29.542,3.258-45.906C838.101,598.946,813.578,602.167,802.557,609.251z"
				/>
			<path d="M764.458,1495.198c-10.457-9.398-29.54-25.297-49.534-35.621c-29.854-15.412-83.78-29.85-88.595-74.148
				c-4.815-44.299,7.703-257.121,51.038-462.24c43.335-205.119,105.93-320.681,119.412-325.496
				c11.248-4.017,46.602-10.709,58.019-12.818c0.852-5.19,1.752-9.233,2.652-11.261c3.851-8.667,3.851-8.667,3.851-8.667
				l1.927-26.002c-4.815,11.557-9.628,11.557-29.853,16.372c-20.224,4.815-51.04-0.963-65.484,24.074
				c-14.445,25.038-71.261,152.154-105.93,280.234c-34.669,128.079-81.854,414.089-84.744,481.499
				c-2.89,67.41-2.888,101.109,70.299,138.67s99.191,49.115,93.412,78.969C745.926,1545.433,756.045,1518.341,764.458,1495.198z"/>
		</g>
		<g>
			<path d="M1289.308,619.089c13.481,8.667,75.111,127.116,113.632,313.938c38.52,186.821,54.889,422.755,52.001,458.388
				c-2.889,35.631-46.222,55.854-77.04,66.449c-21.779,7.484-89.479,19.285-100.378,29.523c-4.384-12.207-7.853-22.197-9.118-26.635
				c3.851-17.336,3.851-27.932-8.671-37.559c-12.518-9.633-20.223-16.365-32.74-34.662c23.113,17.334,84.46,24.066,113.35,21.18
				c28.89-2.895,72.227-8.67,72.227-60.674c0-51.998-27.931-360.167-48.153-450.69c-20.223-90.521-53.926-208.006-74.148-227.266
				c-20.223-19.26-41.411-26.002-48.149-17.334c0-9.7-1.354-29.543-3.258-45.907
				C1253.761,608.783,1278.285,612.005,1289.308,619.089z"/>
			<path d="M1279.36,1493.841c10.456-9.396,69.39-20.277,94.562-26.75c35.518-9.133,86.797-27.523,91.614-71.826
				c4.813-44.295-7.705-257.117-51.041-462.239c-43.334-205.119-105.927-320.681-119.411-325.495
				c-11.249-4.018-46.603-10.709-58.019-12.819c-0.851-5.19-5.91-46.478-5.91-46.478c4.817,11.557,7.108,12.107,27.334,16.921
				c20.223,4.815,51.038-0.963,65.481,24.075c14.447,25.037,71.264,152.154,105.934,280.233
				c34.669,128.08,81.853,414.088,84.741,481.5c2.891,67.408,2.888,101.107-70.298,138.672
				c-73.187,37.557-147.235,37.92-141.456,67.77C1297.894,1544.077,1287.776,1516.981,1279.36,1493.841z"/>
		</g>
		<path d="M794.076,564.734c-19.244,1.833-23.825-21.075-24.741-54.062c-0.916-32.987,4.58-171.353,10.995-207.089
			c6.415-35.736,46.732-106.293,121.871-119.121s119.125-10.997,154.859-10.997c92.549,0,174.096,10.997,210.751,33.905
			c36.655,22.907,68.724,60.476,72.39,125.534c3.667,65.06,1.835,197.925,0.918,212.587c-0.918,14.661-11.913,31.157-22.908,35.737
			c-10.995,4.58-21.99-4.582-21.99-4.582s33.899-9.162,34.817-39.402c0.917-30.24,1.874-163.433,0.917-197.925
			c-0.914-32.987-21.99-95.298-65.058-118.205c-48.28-25.682-140.199-32.987-208.922-32.987s-122.433,3.889-152.108,9.163
			c-41.234,7.331-94.382,34.819-110.875,105.376c-16.493,70.557-11.913,197.925-11.913,209.837c0,11.913-6.414,37.571,26.574,48.566
			C808.736,568.398,794.076,564.734,794.076,564.734z"/>
		<path d="M1389.949,449.391c-6.996-3.595,16.604-36.708,42.761-83.335c26.714-47.62,94.499-152.677,101.668-153.211
			c5.736-0.429-71.594,119.239-93.2,155.631C1429.74,387.739,1399.013,454.049,1389.949,449.391z"/>
		<path d="M1505.631,600.655c7.057,8.325,90.398-72.938,127.511-102.594c37.11-29.658,116.454-102.532,107.233-105.377
			c-3.992-1.232-83.123,74.385-113.079,98.779C1597.339,515.856,1499.238,593.115,1505.631,600.655z"/>
		<path d="M1575.319,772.366c2.906,8.078,120.579-52.574,166.068-71.907c45.488-19.333,180.769-77.918,179.651-81.62
			c-1.247-4.134-158.941,59.909-190.783,75.832C1698.414,710.593,1572.195,763.684,1575.319,772.366z"/>
		<path d="M1603.749,1002.087c-0.046,10.071,141.014,0.925,191.284-0.212c40.953-0.927,150.027-2.671,150.169-6.61
			c0.232-6.474-137.513-0.713-156.481-1.85C1769.752,992.279,1603.792,992.525,1603.749,1002.087z"/>
		<path d="M1595.451,1235.601c-2.546,5.996,120.5,45.33,167.745,64.154c47.248,18.824,165.187,59.219,167.69,55.807
			c7.153-9.748-135.537-54.85-165.018-66.047C1736.389,1278.315,1598.457,1228.517,1595.451,1235.601z"/>
		<path d="M1548.191,1507.112c-4.741,6.389,70.691,60.002,95.658,77.629c24.963,17.621,84.084,67.939,89.109,63.609
			c5.025-4.328-57.525-52.209-82.876-72.072C1624.731,1556.413,1554.354,1498.81,1548.191,1507.112z"/>
		<path d="M1386.537,1623.019c-6.394,5.35,27.813,61.682,47.145,93.523c19.333,31.842,65.745,112.193,71.128,110.041
			c5.686-2.273-47.929-94.176-60.441-118.055C1431.856,1684.649,1391.829,1618.589,1386.537,1623.019z"/>
		<path d="M574.262,202.137c-0.489-8.332,64.273,109.22,79.182,136.089c13.667,24.632,65.191,108.41,54.608,107.882
			c-3.787-0.188-53.042-86.665-70.407-117.833C621.794,299.823,574.792,211.171,574.262,202.137z"/>
		<path d="M320.646,345.809c3.068-4.643,84.137,82.198,128.217,129.839c45.51,49.186,89.188,88.195,82.306,92.489
			c-6.615,4.128-68.492-65.763-92.102-89.373C415.456,455.153,318.406,349.198,320.646,345.809z"/>
		<path d="M409.454,789.21c-3.989,12.725-126.82-48.828-172.073-70.471c-45.253-21.642-123.333-60.107-121.086-65.286
			c1.571-3.623,100.161,45.253,134,59.944C283.424,727.782,411.026,784.192,409.454,789.21z"/>
		<path d="M54.841,1038.325c1.772-4.367,137.778-6.596,173.191-6.596c35.414,0,151.934-8.883,151.382,0.451
			c-0.446,7.568-55.214,8.459-153.609,8.459C145.138,1040.64,52.501,1044.093,54.841,1038.325z"/>
		<path d="M130.914,1386.731c-0.391-7.26,78.381-43.197,149.212-72.711c70.831-29.514,132.316-64.973,138.043-57.145
			c5.324,7.277-102.816,52.275-136.264,66.047C248.458,1336.694,131.198,1392.017,130.914,1386.731z"/>
		<path d="M311.787,1654.396c-3.29-2.186,89.433-88.521,113.043-110.164c23.61-21.643,60.998-61.445,66.001-61.008
			c7.818,0.688-48.883,51.271-74.46,78.818C390.792,1589.587,316.19,1657.321,311.787,1654.396z"/>
		<path d="M666.735,1626.612c-4.599-6.225-82.473,125.295-92.312,146.938c-9.839,21.643-28.516,45.178-17.869,41.943
			c7.629-2.316,45.69-71.057,57.495-92.699C625.855,1701.151,671.01,1632.397,666.735,1626.612z"/>
	</g>
</g>
</svg>
